<svg viewBox="0 0 24 24" xmlns="http://www.w3.org/2000/svg">
  <defs>
    <linearGradient id="avatar-gradient" x1="0%" y1="0%" x2="100%" y2="100%">
      <stop offset="0%" stop-color="#7C3AED" />
      <stop offset="100%" stop-color="#3B82F6" />
    </linearGradient>
  </defs>
  <path d="M12 2C6.48 2 2 6.48 2 12C2 17.52 6.48 22 12 22C17.52 22 22 17.52 22 12C22 6.48 17.52 2 12 2Z" fill="url(#avatar-gradient)"/>
  <path d="M12 6C13.66 6 15 7.34 15 9C15 10.66 13.66 12 12 12C10.34 12 9 10.66 9 9C9 7.34 10.34 6 12 6ZM12 20C10.18 20 8.55 19.23 7.3 17.99C7.35 15.99 10.69 14.9 12 14.9C13.31 14.9 16.65 15.99 16.7 17.99C15.45 19.23 13.82 20 12 20Z" fill="white"/>
</svg>